#define arrow4_width 10
#define arrow4_height 10
static unsigned char arrow4_bits[] = {
   0x00, 0x03, 0xc0, 0x03, 0xf0, 0x01, 0xfc, 0x00, 0xff, 0x00, 0xff, 0x00,
   0xfc, 0x00, 0xf0, 0x01, 0xc0, 0x03, 0x00, 0x03 };
