#define arrow1_width 10
#define arrow1_height 10
static unsigned char arrow1_bits[] = {
   0x30, 0x00, 0x30, 0x00, 0x78, 0x00, 0x78, 0x00, 0xfc, 0x00, 0xfc, 0x00,
   0xfe, 0x01, 0xfe, 0x01, 0x87, 0x03, 0x03, 0x03 };
