#define arrow2_width 10
#define arrow2_height 10
static unsigned char arrow2_bits[] = {
   0x03, 0x00, 0x0f, 0x00, 0x3e, 0x00, 0xfc, 0x00, 0xfc, 0x03, 0xfc, 0x03,
   0xfc, 0x00, 0x3e, 0x00, 0x0f, 0x00, 0x03, 0x00 };
