#define arrow3_width 10
#define arrow3_height 10
static unsigned char arrow3_bits[] = {
   0x03, 0x03, 0x87, 0x03, 0xfe, 0x01, 0xfe, 0x01, 0xfc, 0x00, 0xfc, 0x00,
   0x78, 0x00, 0x78, 0x00, 0x30, 0x00, 0x30, 0x00 };
